# xmcd CD database file
#
# Track frame offsets:
#	150
#	15368
#	31648
#	43775
#	65749
#	80052
#	92687
#	117846
#	130892
#	141406
#	166148
#	177936
#	201614
#	213406
#	230157
#	251586
#	265775
#	279802
#	295316
#
# Disc length: 4113 seconds
#
# Revision: 3
# Processed by: cddbd v1.5.2PL0 Copyright (c) Steve Scherf et al.
# Submitted via: CDex 1.70beta2
#
DISCID=18100f13
DTITLE=Various Artist - Beyond Mississippi - CD 2
DYEAR=2002
DGENRE=Blues
TTITLE0=Dr Feelgood - She does it right
TTITLE1=Bob Dylan - Dirt road blues
TTITLE2=Howling Wolf - Moaning at Midnight
TTITLE3=Jesie Mae Hemphill - Loving in the midnight
TTITLE4=Tom Waits - Filipino Box Spring Hog
TTITLE5=Bo Diddley - Heart-O-Magic love
TTITLE6=Van Morrison - Who drove the red sport car?
TTITLE7=Lightning Hopkins - Jake head boogie
TTITLE8=Chuck Berry - Deep feeing
TTITLE9=Cassandra Wilson - Strange fruit
TTITLE10=Sonny Terry (feat.Woody Guthrie) - Rain crow Bill
TTITLE11=Skip James - Devil got my woman
TTITLE12=Sister Rosetta Tharpe - That's all
TTITLE13=Errol Linton's Blues Vibe - Packin' my bags
TTITLE14=Nina Simone - Mississippi Goddam
TTITLE15=Cripple Clarence Lofton - I don't know
TTITLE16=George 'Bongo Joe' Coleman - Eloise
TTITLE17=Tommy Johnson - Cool drink of water blues
TTITLE18=B.B. and Group - Black woman
EXTD=YEAR: 2002
EXTT0=
EXTT1=
EXTT2=
EXTT3=
EXTT4=
EXTT5=
EXTT6=
EXTT7=
EXTT8=
EXTT9=
EXTT10=
EXTT11=
EXTT12=
EXTT13=
EXTT14=
EXTT15=
EXTT16=
EXTT17=
EXTT18=
PLAYORDER=
